<?xml version="1.0" standalone="no"?>
<!DOCTYPE svg PUBLIC "-//W3C//DTD SVG 20010904//EN"
 "http://www.w3.org/TR/2001/REC-SVG-20010904/DTD/svg10.dtd">
<svg version="1.0" xmlns="http://www.w3.org/2000/svg"
 width="700.000000pt" height="700.000000pt" viewBox="0 0 700.000000 700.000000"
 preserveAspectRatio="xMidYMid meet">
<metadata>
Created by potrace 1.11, written by Peter Selinger 2001-2013
</metadata>
<g transform="translate(0.000000,700.000000) scale(0.100000,-0.100000)"
fill="#000000" stroke="none">
<path d="M3295 6694 c-243 -24 -349 -40 -500 -75 -472 -107 -904 -317 -1295
-627 -134 -107 -409 -386 -514 -522 -381 -494 -597 -1028 -667 -1650 -15 -135
-15 -505 0 -640 70 -622 286 -1156 667 -1650 105 -136 380 -415 514 -522 492
-390 1019 -609 1660 -690 133 -16 552 -17 680 0 560 73 993 231 1431 523 789
526 1294 1354 1410 2314 17 140 18 537 1 675 -78 639 -302 1181 -690 1670 -98
122 -370 394 -492 492 -478 379 -998 600 -1610 683 -109 15 -510 28 -595 19z
m581 -128 c575 -75 1073 -283 1534 -639 135 -105 412 -382 517 -517 533 -689
752 -1515 627 -2370 -53 -367 -202 -787 -388 -1100 -148 -249 -274 -410 -485
-621 -165 -165 -286 -266 -454 -380 l-102 -69 -6 88 c-4 48 -7 133 -8 189 l-1
102 38 3 c32 3 37 7 40 30 2 20 26 46 87 97 458 386 784 915 919 1491 145 625
65 1312 -217 1855 -36 68 -36 69 -32 30 35 -316 -12 -677 -134 -1028 -21 -62
-193 -556 -382 -1100 -188 -543 -346 -987 -350 -987 -21 0 -108 364 -109 451
0 40 164 594 234 792 130 364 178 630 156 867 -23 248 -84 417 -256 705 l-54
90 -3 205 c-3 147 -9 228 -21 286 l-18 80 33 48 c31 43 34 54 34 119 0 60 -4
78 -24 105 l-23 33 22 24 c49 52 160 95 279 107 22 3 12 13 -70 79 -199 161
-351 258 -574 365 -891 427 -1951 339 -2764 -229 -136 -95 -218 -164 -349
-292 -174 -169 -380 -423 -365 -448 7 -12 416 -2 711 18 226 14 255 11 285
-37 28 -43 25 -107 -7 -144 l-23 -28 -34 28 c-18 16 -39 45 -46 65 -7 20 -28
51 -47 69 -41 37 -63 43 -46 12 15 -28 29 -110 19 -110 -5 0 -9 7 -9 15 0 16
-74 95 -90 95 -5 0 -3 -19 5 -41 8 -23 15 -56 15 -73 l-1 -31 -19 36 c-16 31
-78 84 -87 75 -2 -2 3 -18 11 -37 17 -44 28 -99 18 -99 -4 0 -15 12 -24 28
-13 21 -78 72 -78 60 0 -2 7 -21 15 -43 8 -22 14 -52 15 -66 l0 -27 -34 34
c-44 44 -59 44 -41 2 7 -18 15 -53 18 -78 3 -28 22 -78 51 -131 26 -49 71
-162 106 -267 67 -203 87 -249 155 -341 44 -60 59 -99 233 -619 150 -450 182
-556 171 -563 -8 -5 -37 -9 -66 -9 -60 0 -61 1 -159 163 -32 55 -96 147 -141
205 -45 59 -98 130 -117 158 -50 71 -145 120 -103 52 20 -32 39 -94 35 -115
-2 -14 -9 -8 -27 21 -23 37 -73 76 -99 76 -9 0 -9 -8 4 -31 20 -39 45 -122 38
-128 -2 -3 -19 12 -36 33 -26 31 -79 66 -102 66 -3 0 6 -22 20 -49 14 -27 28
-67 31 -89 l5 -41 -46 45 c-25 24 -55 44 -65 44 -17 0 -17 -3 5 -47 26 -56 41
-123 27 -123 -6 0 -18 9 -27 19 -18 20 -73 47 -81 39 -2 -2 7 -26 20 -52 14
-27 27 -65 30 -85 9 -57 27 -89 109 -199 149 -201 293 -331 452 -411 119 -59
216 -83 368 -90 l129 -6 77 -230 c42 -126 79 -225 82 -220 3 6 40 116 83 245
42 129 82 240 89 246 13 12 257 76 264 69 10 -9 -382 -1133 -435 -1247 -81
-176 -112 -326 -113 -541 l0 -79 -32 7 c-69 15 -328 110 -443 162 -340 153
-625 353 -905 633 -172 172 -279 301 -397 480 -422 639 -589 1393 -477 2160
65 448 252 919 512 1295 201 289 498 586 787 787 235 163 505 296 783 388 250
82 452 124 722 150 127 12 488 4 626 -14z m1039 -1190 c27 -19 13 -42 -44 -71
-28 -14 -66 -38 -84 -55 -42 -36 -47 -37 -77 -5 l-24 25 34 35 c38 39 122 85
155 85 12 0 30 -6 40 -14z m-799 -95 c61 -37 198 -201 182 -217 -3 -3 -23 -2
-44 2 -39 7 -51 18 -137 113 -51 56 -74 53 -107 -14 -26 -53 -64 -73 -76 -40
-10 26 17 106 49 142 35 39 83 44 133 14z m-1151 -241 c88 -5 247 -12 353 -16
l193 -7 -1 -26 c-4 -55 1 -71 32 -107 l32 -37 14 34 c30 73 67 91 69 32 1 -47
25 -66 75 -60 24 3 41 0 48 -8 22 -27 70 -29 102 -5 l30 22 25 -25 c30 -30 23
-47 -18 -47 -26 0 -29 -3 -24 -20 6 -19 2 -20 -67 -20 -212 0 -429 59 -482
132 -10 15 -22 44 -25 65 -9 55 -35 51 -39 -6 -7 -96 59 -185 160 -217 38 -12
112 -18 261 -24 114 -4 212 -11 216 -16 17 -18 23 -54 9 -54 -7 0 -2 -7 10
-16 26 -18 29 -49 6 -58 -9 -3 -36 -6 -60 -6 -42 0 -44 1 -44 30 0 22 6 33 23
40 16 6 17 9 5 9 -9 1 -20 -4 -24 -10 -3 -6 -18 -8 -33 -4 l-26 6 23 -16 c47
-34 21 -65 -55 -65 -29 0 -33 3 -33 28 0 15 6 34 13 41 10 10 9 11 -5 6 -10
-4 -18 -17 -18 -29 l-1 -21 -17 21 c-9 12 -21 29 -27 38 -22 37 -65 -13 -65
-74 0 -26 -4 -30 -26 -30 -24 0 -25 -3 -19 -27 17 -69 60 -85 248 -91 136 -4
147 -6 147 -24 0 -57 -65 -121 -207 -204 -156 -91 -252 -162 -336 -246 -43
-43 -79 -78 -81 -78 -2 0 -9 13 -14 29 -9 24 -6 35 14 64 l24 35 -42 14 -42
13 -142 390 -142 390 -49 7 c-26 3 -99 12 -162 18 -153 15 -184 36 -184 130 0
80 59 123 158 115 33 -3 132 -9 220 -15z m655 -80 c0 -4 -9 -15 -20 -25 -11
-10 -20 -24 -20 -32 0 -18 -14 -16 -32 5 -18 20 -32 77 -23 91 6 10 95 -27 95
-39z m133 -30 c5 -4 7 -18 5 -31 -2 -18 -10 -25 -31 -27 -37 -4 -57 13 -57 50
0 29 1 30 38 23 20 -3 41 -10 45 -15z m102 -32 c42 -21 44 -23 28 -40 -32 -35
-103 -10 -103 38 0 30 16 31 75 2z m-181 -308 c14 -22 26 -44 26 -50 0 -5 -21
-10 -46 -10 l-47 0 6 36 c5 30 22 64 32 64 1 0 14 -18 29 -40z m370 -3884 c15
-40 47 -107 70 -149 l44 -76 -52 -11 c-161 -33 -481 -64 -591 -58 l-60 3 80
81 c147 148 363 279 466 283 11 1 25 -22 43 -73z"/>
<path d="M922 4500 c-128 -328 -185 -638 -185 -995 0 -339 44 -599 155 -925
50 -149 197 -445 288 -584 224 -343 526 -638 865 -847 100 -62 226 -132 230
-127 3 4 -1291 3549 -1303 3568 -6 10 -20 -13 -50 -90z"/>
</g>
</svg>
