<svg id="Ebene_1" xmlns="http://www.w3.org/2000/svg" viewBox="0 0 360 360"><style>.st0{fill:#FFFFFF;} .st1{fill:#22749b;} .st2{fill:#E73F25;} .st3{fill:#020203;} .st4{fill:none;}</style><circle class="st0" cx="179.7" cy="179.8" r="161.3"/><path class="st1" d="M182.5 192.5l-42.8 124.3c12.8 3.8 26.3 5.8 40.3 5.8 16.6 0 32.5-2.9 47.4-8.1-.4-.6-.7-1.3-1-2l-43.9-120z"/><path class="st1" d="M276.3 172.8c0-17.6-6.3-29.8-11.8-39.3-7.2-11.8-14-21.7-14-33.4 0-13.1 9.9-25.3 24-25.3.6 0 1.2.1 1.8.1-25.4-23.2-59.2-37.4-96.3-37.4-49.8 0-93.7 25.6-119.2 64.3 3.4.1 6.5.2 9.2.2 14.9 0 38-1.8 38-1.8 7.7-.5 8.6 10.8.9 11.8 0 0-7.7.9-16.3 1.4l51.9 154.5 31.2-93.6-22.2-60.9c-7.7-.4-15-1.4-15-1.4-7.7-.5-6.8-12.2.9-11.8 0 0 23.5 1.8 37.6 1.8 14.9 0 38-1.8 38-1.8 7.7-.5 8.6 10.8.9 11.8 0 0-7.7.9-16.3 1.4l51.5 153.3 14.2-47.5c7.4-18.8 11-34.2 11-46.4zM37.4 180c0 56.5 32.8 105.2 80.4 128.4L49.8 122c-8 17.7-12.4 37.3-12.4 58zM305.1 111.6c.6 4.5 1 9.4 1 14.7 0 14.5-2.7 30.7-10.8 51.1l-43.6 125.9c42.4-24.7 70.9-70.7 70.9-123.3 0-24.8-6.3-48.1-17.5-68.4z"/><path class="st2" d="M86.5 109.4c1.8 1.6 2.5 5.5 2.8 8.6l19.2-8c.1-5.4-3.6-8.9-6.9-9.2 1.9 2.2 2.3 5.5 2.6 8.6-.6-4.5-3.9-7.4-6.8-7.5 1.5 1.6 2.4 4.9 2.5 8.2-.5-2.5-2.8-6.2-6.6-6.5 1.8 1.8 2.3 5.3 2.7 8.5-.5-2.7-3.3-5.8-6.4-6 1.3 1.1 2.4 5 2.6 8-.1-1.3-2.3-4.3-5.7-4.7zM94.1 183.3c1.9 1.3 3.4 6.2 3.9 9.4-1.3-3.5-4.5-7.3-8.4-6.9 2.1 1.8 3.3 6.4 4.1 9.8-2.1-3.9-4.6-6.9-8.4-6.4 2.5 2.5 3.5 6.8 4.1 10.1-1.2-2.8-4.1-6.2-7.9-5.8 2.4 2.2 3.4 6.9 4.2 10.3-1.5-2.1-3.8-5-7.5-4.7 2.4 2.3 3.5 6.9 4.5 10.3l20.2-18c-1-4.2-4.7-8.7-8.8-8.1zM187.3 114.8c-14.4-2.3-16.2-6.4-16.2-9.4-.1-3.2-2.9-3.3-2.9.1.1 20 30.2 9.8 38.7 14.9l-.4-3.6c-4.3-2-12-.8-19.2-2z"/><path class="st3" d="M160.2 194.4c-.3-24.1 4.2-29.1 12.3-39-22.5-6.6-38.4-9.6-47.3-16.4-9-6.9-5-21.9-15.9-29.9-5.4-4-22.4 5.5-19.8 9.5 16.7 26-5.6 32.3 70.7 75.8z"/><path class="st4" d="M179.7 18.5c-89.1 0-161.3 72.2-161.3 161.3 0 75.1 51.3 138.3 120.9 156.2-1-11.2-.3-22.6 4.4-33 5.9-12.1 15.2-23.8 39.9-35.5 1.9 1.8 5.5 5.8 7.5 7l2.4-1.8c-11.6-10.3-16.6-16.9-20.9-33.9 3.3-1.1 6.1-2.1 9.2-3.5l-1-3.2c-4.7 1.4-26.2 10.5-50.9 10.3-23.9-.2-38.2-19.2-47-32.6-3.8-5.8 17.1-23.2 20.2-19.6 6.2 7 10.4 13.9 15.7 23.1 1.5 2.6 8.9.8 11.8-.5 11.6-5.4 29.3-14.8 39-19.4l-.6-2.9-5.4 2.4c-.5-9.4.6-19.1 5.3-27.2 5.6-10.3 16-16.5 25.9-22.1 3.8-2.4 8.9-5.2 8.4-10.3-18.2.4-20.4-1-20.5-6.1.8-.1 1.6-.2 2.5-.2-.3-4.4.8-5.3 2.8-6.5.7 1.5 1.5 2.9 2.6 4.3v-.8c0-2.7 4.8-3 6.3-1.3 1.4-2.2 7.5-1.8 7.5.8v1.8c.8-.1 1.7-.2 2.5-.2 0-4.5-.5-9.3-3.2-13-.8-1.1-1.8-1.9-2.7-2.7-.5 1.1-1.3 2.2-2.9 2.2-1.5 0-3.5-.1-4.4-2.3-1 1.5-4.8 1.5-5.5-.7-.3-.8-.3-2.3-.1-3.7-.1-.1-.2-.1-.4-.2-1.9 1.3-3.2 2.7-3.5 5.8-3.9-3.2-4.3-5.1-3.7-8.9-4.8-3.5-6.2-7.9-6.2-14.7 0-1.1.7-1.5 1.6-1.6l18.8-.7v-.1c7.6-5.1 14.6-8.4 26.9-8.4 14.3 0 15.2 1.9 22.6 3.8 9.1-7.5 24.9 4.5 13.4 16.6 1.7 6.7 2.5 11.5 2.5 18.1.2 23.7-6.4 21.2-6.5 32.6-.1 3.9 3.6 12.5 3.7 19.2.2 15.7-10.4 33.3-10.4 42.7 0 6.9 2.3 13.7 4.4 20.2 5.3 16.1 3.2 41 16.1 57l-.6 8.9-4.3-.1c.1 2.4.4 11.7 1.1 22.2C310 289.4 341 238.2 341 179.8c0-89.1-72.2-161.3-161.3-161.3z"/><path class="st4" d="M197.8 287.6c-.2 11.1 1.8 21.7 4.6 32.3-7 3.3-14.1 7.6-19.6 13-2.6 2.5-4.9 5.3-6.9 8.2h3.7c12.2 0 24.1-1.4 35.6-3.9-7.9-10.9-12.6-24.2-14.1-49.8l-3.3.2z"/><path class="st3" d="M266.7 295.6l.6-8.9c-12.9-15.9-10.8-40.9-16.1-57-2.1-6.5-4.4-13.3-4.4-20.2 0-9.4 10.6-27 10.4-42.7-.1-6.6-3.8-15.2-3.7-19.2.1-11.4 6.6-8.9 6.5-32.6-.1-6.5-.8-11.4-2.5-18.1 11.5-12.1-4.3-24.2-13.4-16.6-7.3-1.9-8.2-3.8-22.6-3.8-12.2 0-19.2 3.3-26.9 8.4v.1l-18.8.7c-.9.1-1.6.5-1.6 1.6.1 6.8 1.4 11.2 6.2 14.7-.6 3.8-.2 5.7 3.7 8.9.4-3.1 1.6-4.5 3.5-5.8.2.1.3.1.4.2-.2 1.4-.2 2.8.1 3.7.8 2.2 4.5 2.2 5.5.7.9 2.2 2.8 2.3 4.4 2.3 1.6 0 2.4-1.2 2.9-2.2.9.8 1.8 1.6 2.7 2.7 2.7 3.7 3.2 8.5 3.2 13-.8.1-1.7.2-2.5.2v-1.8c-.1-2.6-6.2-3.1-7.5-.8-1.5-1.7-6.3-1.4-6.3 1.3v.8c-1.1-1.4-1.9-2.8-2.6-4.3-1.9 1.2-3.1 2.2-2.8 6.5-.8.1-1.7.2-2.5.2.1 5.1 2.3 6.5 20.5 6.1.5 5.1-4.6 7.9-8.4 10.3-9.9 5.6-20.2 11.8-25.9 22.1-4.7 8.2-5.8 17.9-5.3 27.2l5.4-2.4.6 2.9c-9.7 4.6-27.4 14-39 19.4-2.8 1.3-10.2 3.2-11.8.5-5.3-9.2-9.5-16.1-15.7-23.1-3.2-3.6-24.1 13.7-20.2 19.6 8.8 13.3 23.1 32.4 47 32.6 24.7.2 46.2-8.9 50.9-10.3l1 3.2c-3.2 1.4-5.9 2.4-9.2 3.5 4.3 16.9 9.3 23.6 20.9 33.9l-2.4 1.8c-2.1-1.2-5.6-5.2-7.5-7-24.7 11.7-33.9 23.4-39.9 35.5-4.7 10.4-5.4 21.8-4.4 33 11.8 3 24.1 4.8 36.8 5.1 2-3 4.3-5.7 6.9-8.2 5.5-5.4 12.5-9.7 19.6-13-2.8-10.6-4.8-21.2-4.6-32.3l3.4-.2c1.5 25.6 6.2 38.9 14.1 49.8 17.3-3.9 33.6-10.6 48.3-19.5-.7-10.5-1-19.8-1.1-22.2l4.1-.3z"/><path class="st0" d="M185.9 127.1l4.5-.4v-.5c-1.1-1.3-2-2.8-2.8-4.3-1.7 1.2-1.9 3-1.7 5.2zM198 111c1.4 0 2.1-.9 2.5-1.8-1.8-1.2-3.8-1.8-5.8-2.5-.2.9-.4 2 0 2.8.7 1.4 2.1 1.5 3.3 1.5zM193.1 108.9c.3-.5.5-1.5.5-2.5-1.5-.5-3.2-.8-4.7-1.2-.3 1.2-.3 2.4-.1 3.1.7 1.8 3.6 1.9 4.3.6zM181.4 102.4c-.7 2.4.2 5.1 2.2 6.5.4-1.7 1.6-3.2 2.9-4.3-2.4-.7-4-1.5-5.1-2.2zM197.4 123.9v2.2l6.2-.5v-1.7c0-2.4-6.2-2.5-6.2 0zM191.2 124.2v2.4l5.5-.5v-1.9c-.1-2.3-5.5-2.5-5.5 0zM248.9 83.2c-3.1 1-5.9 3.4-7.8 5.8l2.8 2.8c2.2-2.2 4.7-4 7.7-5.3 3.7-1.1 1.8-4.8-2.7-3.3zM202.4 94c-1.1 4.2 2.6 4.2 3.5 1 1-3.5 2.7-7.2 9.4 3 .6.8 2.7 1.5 3.8 1.5h2.4c-9.1-14.4-16.4-15.9-19.1-5.5z"/><path class="st1" d="M180 15.2c-90.8 0-164.7 74-164.7 164.8 0 90.8 73.9 164.8 164.7 164.8 90.8 0 164.8-73.9 164.8-164.8-.1-90.8-74-164.8-164.8-164.8zm0 323.4c-87.5 0-158.6-71.2-158.6-158.6C21.4 92.5 92.5 21.4 180 21.4S338.6 92.6 338.6 180c0 87.5-71.1 158.6-158.6 158.6z"/></svg>
